<svg id="Text_Left" data-name="Text Left" xmlns="http://www.w3.org/2000/svg" width="24" height="24" viewBox="0 0 24 24">
    <path id="Vector" d="M24,0V24H0V0Z" fill="none"/>
    <g id="Group" transform="translate(6 5.7)">
        <path id="Vector-2" data-name="Vector" d="M1.816,0H0" transform="translate(0 10)" fill="none" stroke="#000"
              stroke-linecap="round" stroke-linejoin="round" stroke-width="1.5" stroke-dasharray="0 0"/>
        <path id="Vector-3" data-name="Vector" d="M6,0H0" transform="translate(0 5)" fill="none" stroke="#000"
              stroke-linecap="round" stroke-linejoin="round" stroke-width="1.5" stroke-dasharray="0 0"/>
        <path id="Vector-4" data-name="Vector" d="M12,0H0" fill="none" stroke="#000" stroke-linecap="round"
              stroke-linejoin="round" stroke-width="1.5" stroke-dasharray="0 0"/>
        <g id="Group_9477" data-name="Group 9477" transform="translate(-6 -7)">
            <g id="Group_9477-2" data-name="Group 9477">
                <path id="Vector-5" data-name="Vector" d="M9.844,5.5V2c0-1.56-1.029-2-2.294-2V0"
                      transform="translate(18.002 7.156) rotate(90)" fill="none" stroke="#000" stroke-linecap="round"
                      stroke-linejoin="round" stroke-width="1.5" stroke-dasharray="0 0"/>
                <path id="Vector-6" data-name="Vector" d="M2.514-.479V3.5c0,1.56-1.128,2-2.514,2v0"
                      transform="translate(12.5 14.514) rotate(-90)" fill="none" stroke="#000" stroke-linecap="round"
                      stroke-linejoin="round" stroke-width="1.5" stroke-dasharray="0 0"/>
            </g>
            <g id="Group-2" data-name="Group" transform="translate(14.45 14.36) rotate(90)">
                <path id="Vector-7" data-name="Vector" d="M2.64,2.64,0,0" transform="translate(0)" fill="none"
                      stroke="#000" stroke-linecap="round" stroke-linejoin="round" stroke-width="1.5"
                      stroke-dasharray="0 0"/>
                <path id="Vector-8" data-name="Vector" d="M0,2.64,2.64,0" transform="translate(2.64)" fill="none"
                      stroke="#000" stroke-linecap="round" stroke-linejoin="round" stroke-width="1.5"
                      stroke-dasharray="0 0"/>
            </g>
        </g>
    </g>
</svg>
