<svg xmlns="http://www.w3.org/2000/svg" width="24" height="24" viewBox="0 0 24 24">
  <g id="Group_11151" data-name="Group 11151" transform="translate(-21 -289)">
    <rect id="Rectangle_2119" data-name="Rectangle 2119" width="24" height="24" rx="6" transform="translate(21 289)" fill="none"/>
    <path id="Vector" d="M1.74.146A1.175,1.175,0,0,0,0,1.186v3.17A1.184,1.184,0,0,0,1.74,5.4l2.92-1.58a1.188,1.188,0,0,0,0-2.09Z" transform="translate(28.51 300.084)" fill="none" stroke="#393939" stroke-linecap="round" stroke-linejoin="round" stroke-width="1.5" stroke-dasharray="0 0"/>
    <path id="Vector-2" data-name="Vector" d="M14.8,13.32a1.477,1.477,0,0,1-1.48,1.48H1.48A1.477,1.477,0,0,1,0,13.32V1.48A1.477,1.477,0,0,1,1.48,0H13.32A1.477,1.477,0,0,1,14.8,1.48Z" transform="translate(23.75 295.449)" fill="none" stroke="#393939" stroke-linecap="round" stroke-linejoin="round" stroke-width="1.5" stroke-dasharray="0 0"/>
    <path id="Vector-3" data-name="Vector" d="M0,1.47A1.481,1.481,0,0,1,1.48,0H13.33A1.472,1.472,0,0,1,14.8,1.47V13.32a1.481,1.481,0,0,1-1.47,1.48" transform="translate(27.449 291.75)" fill="none" stroke="#393939" stroke-linecap="round" stroke-linejoin="round" stroke-width="1.5" stroke-dasharray="0 0"/>
  </g>
</svg>
